<?xml version="1.0" encoding="UTF-8" standalone="no"?>
<!-- Created with Inkscape (http://www.inkscape.org/) -->

<svg
   xmlns:dc="http://purl.org/dc/elements/1.1/"
   xmlns:cc="http://creativecommons.org/ns#"
   xmlns:rdf="http://www.w3.org/1999/02/22-rdf-syntax-ns#"
   xmlns:svg="http://www.w3.org/2000/svg"
   xmlns="http://www.w3.org/2000/svg"
   xmlns:sodipodi="http://sodipodi.sourceforge.net/DTD/sodipodi-0.dtd"
   xmlns:inkscape="http://www.inkscape.org/namespaces/inkscape"
   id="svg2"
   version="1.1"
   inkscape:version="0.48.5 r10040"
   sodipodi:docname="New document 1">
  <defs
     id="defs4">
    <clipPath
       id="clipPath3057"
       clipPathUnits="userSpaceOnUse">
      <path
         id="path3059"
         d="m 397.932,212.898 165.08,0 0,165.515 -165.08,0 0,-165.515 z" />
    </clipPath>
    <clipPath
       id="clipPath3043"
       clipPathUnits="userSpaceOnUse">
      <path
         id="path3045"
         d="m 397.75,413.373 165.08,0 0,165.443 -165.08,0 0,-165.443 z" />
    </clipPath>
    <clipPath
       id="clipPath3029"
       clipPathUnits="userSpaceOnUse">
      <path
         id="path3031"
         d="m 223.294,212.995 165.08,0 0,165.2 -165.08,0 0,-165.2 z" />
    </clipPath>
    <clipPath
       id="clipPath3015"
       clipPathUnits="userSpaceOnUse">
      <path
         id="path3017"
         d="m 572.206,413.555 165.08,0 0,165.261 -165.08,0 0,-165.261 z" />
    </clipPath>
    <clipPath
       id="clipPath3001"
       clipPathUnits="userSpaceOnUse">
      <path
         id="path3003"
         d="m 223.294,413.737 165.08,0 0,165.079 -165.08,0 0,-165.079 z" />
    </clipPath>
  </defs>
  <sodipodi:namedview
     id="base"
     pagecolor="#ffffff"
     bordercolor="#666666"
     borderopacity="1.0"
     inkscape:pageopacity="0.0"
     inkscape:pageshadow="2"
     inkscape:zoom="0.7"
     inkscape:cx="750.02089"
     inkscape:cy="573.12274"
     inkscape:document-units="px"
     inkscape:current-layer="layer1"
     showgrid="false"
     inkscape:window-width="1920"
     inkscape:window-height="1018"
     inkscape:window-x="-8"
     inkscape:window-y="-8"
     inkscape:window-maximized="1" />
  <metadata
     id="metadata7">
    <rdf:RDF>
      <cc:Work
         rdf:about="">
        <dc:format>image/svg+xml</dc:format>
        <dc:type
           rdf:resource="http://purl.org/dc/dcmitype/StillImage" />
        <dc:title></dc:title>
      </cc:Work>
    </rdf:RDF>
  </metadata>
  <g
     inkscape:label="Layer 1"
     inkscape:groupmode="layer"
     id="layer1">
    <g
       id="g3107"
       transform="matrix(1.25,0,0,-1.25,23.053182,235.37274)">
      <path
         inkscape:connector-curvature="0"
         d="m 0,0 0,167.364 81.68,0 20.821,-24.023 0,24.023 65.664,0 L 168.165,0 74.473,0 57.657,19.219 57.657,0 0,0 z"
         style="fill:none;stroke:#000000;stroke-width:0.25;stroke-linecap:butt;stroke-linejoin:miter;stroke-miterlimit:4;stroke-opacity:1;stroke-dasharray:none"
         id="path3109" />
    </g>
    <g
       id="g3111"
       transform="matrix(1.25,0,0,-1.25,240.26681,26.167355)">
      <path
         inkscape:connector-curvature="0"
         d="M 0,0 71.27,0 84.083,-24.023 96.895,0 l 69.669,0 0,-137.735 -16.016,-12.813 0,-16.816 -134.532,0 0,16.816 L 0,-138.536 0,0 z"
         style="fill:none;stroke:#000000;stroke-width:0.25;stroke-linecap:butt;stroke-linejoin:miter;stroke-miterlimit:4;stroke-opacity:1;stroke-dasharray:none"
         id="path3113" />
    </g>
    <g
       id="g3115"
       transform="matrix(1.25,0,0,-1.25,457.48031,26.167355)">
      <path
         inkscape:connector-curvature="0"
         d="M 0,0 70.469,0 83.282,-16.136 96.895,0 l 69.669,0 0,-73.672 -9.61,-10.01 9.61,-10.81 0,-72.872 -69.669,0 -13.613,15.336 -12.813,-15.336 -70.469,0 0,72.872 10.41,10.81 -11.211,10.01 L 0,0 z"
         style="fill:none;stroke:#000000;stroke-width:0.25;stroke-linecap:butt;stroke-linejoin:miter;stroke-miterlimit:4;stroke-opacity:1;stroke-dasharray:none"
         id="path3117" />
    </g>
  </g>
</svg>
