<?xml version="1.0" encoding="UTF-8" standalone="no"?>
<!-- Created with Inkscape (http://www.inkscape.org/) -->

<svg
   xmlns:dc="http://purl.org/dc/elements/1.1/"
   xmlns:cc="http://creativecommons.org/ns#"
   xmlns:rdf="http://www.w3.org/1999/02/22-rdf-syntax-ns#"
   xmlns:svg="http://www.w3.org/2000/svg"
   xmlns="http://www.w3.org/2000/svg"
   xmlns:sodipodi="http://sodipodi.sourceforge.net/DTD/sodipodi-0.dtd"
   xmlns:inkscape="http://www.inkscape.org/namespaces/inkscape"
   id="svg2"
   version="1.1"
   inkscape:version="0.48.5 r10040"
   sodipodi:docname="nyx-logo.svg"
   inkscape:export-filename="C:\Users\sylvain\Desktop\nyx-logo.png"
   inkscape:export-xdpi="107.55765"
   inkscape:export-ydpi="107.55765"
   width="100%"
   height="100%">
  <defs
     id="defs4" />
  <sodipodi:namedview
     id="base"
     pagecolor="#ffffff"
     bordercolor="#666666"
     borderopacity="1.0"
     inkscape:pageopacity="0.0"
     inkscape:pageshadow="2"
     inkscape:zoom="0.49497475"
     inkscape:cx="579.88317"
     inkscape:cy="673.64181"
     inkscape:document-units="px"
     inkscape:current-layer="layer1"
     showgrid="false"
     inkscape:window-width="1220"
     inkscape:window-height="717"
     inkscape:window-x="329"
     inkscape:window-y="178"
     inkscape:window-maximized="0" />
  <metadata
     id="metadata7">
    <rdf:RDF>
      <cc:Work
         rdf:about="">
        <dc:format>image/svg+xml</dc:format>
        <dc:type
           rdf:resource="http://purl.org/dc/dcmitype/StillImage" />
        <dc:title></dc:title>
      </cc:Work>
    </rdf:RDF>
  </metadata>
  <g
     inkscape:label="Layer 1"
     inkscape:groupmode="layer"
     id="layer1">
    <g
       id="g2995"
       transform="matrix(1.25,0,0,-1.25,41.541085,252.4585)">
      <path
         inkscape:connector-curvature="0"
         d="m 0,0 0,167.364 81.68,0 20.821,-24.023 0,24.023 65.664,0 L 168.165,0 74.473,0 57.657,19.219 57.657,0 0,0 z"
         style="fill:#000000;fill-opacity:1;fill-rule:nonzero;stroke:none"
         id="path2997" />
    </g>
    <g
       id="g2999"
       transform="matrix(1.25,0,0,-1.25,258.75471,43.253126)">
      <path
         inkscape:connector-curvature="0"
         d="M 0,0 71.27,0 84.083,-24.023 96.895,0 l 69.669,0 0,-137.735 -16.016,-12.813 0,-16.816 -134.532,0 0,16.816 L 0,-138.536 0,0 z"
         style="fill:#000000;fill-opacity:1;fill-rule:nonzero;stroke:none"
         id="path3001" />
    </g>
    <g
       id="g3003"
       transform="matrix(1.25,0,0,-1.25,475.96821,43.253126)">
      <path
         inkscape:connector-curvature="0"
         d="M 0,0 70.469,0 83.282,-16.136 96.895,0 l 69.669,0 0,-73.672 -9.61,-10.01 9.61,-10.81 0,-72.872 -69.669,0 -13.613,15.336 -12.813,-15.336 -70.469,0 0,72.872 10.41,10.81 -11.211,10.01 L 0,0 z"
         style="fill:#000000;fill-opacity:1;fill-rule:nonzero;stroke:none"
         id="path3005" />
    </g>
  </g>
</svg>
